<svg version="1.1" xmlns="http://www.w3.org/2000/svg">
<defs>
<symbol id="rss" viewBox="0 0 24 28">
<title>rss-square</title>
<path d="M8 20c0-1.109-0.891-2-2-2s-2 0.891-2 2 0.891 2 2 2 2-0.891 2-2zM13.484 21.469c-0.266-4.844-4.109-8.687-8.953-8.953-0.141-0.016-0.281 0.047-0.375 0.141s-0.156 0.219-0.156 0.359v2c0 0.266 0.203 0.484 0.469 0.5 3.203 0.234 5.781 2.812 6.016 6.016 0.016 0.266 0.234 0.469 0.5 0.469h2c0.141 0 0.266-0.063 0.359-0.156s0.156-0.234 0.141-0.375zM19.484 21.484c-0.266-8.125-6.844-14.703-14.969-14.969-0.156-0.016-0.266 0.031-0.359 0.141-0.094 0.094-0.156 0.219-0.156 0.359v2c0 0.266 0.219 0.484 0.484 0.5 6.484 0.234 11.766 5.516 12 12 0.016 0.266 0.234 0.484 0.5 0.484h2c0.141 0 0.266-0.063 0.359-0.156 0.109-0.094 0.156-0.219 0.141-0.359zM24 6.5v15c0 2.484-2.016 4.5-4.5 4.5h-15c-2.484 0-4.5-2.016-4.5-4.5v-15c0-2.484 2.016-4.5 4.5-4.5h15c2.484 0 4.5 2.016 4.5 4.5z"></path>
</symbol>
<symbol id="rss2" viewBox="0 0 32 32">
<title>rss2</title>
<path d="M29 0h-26c-1.65 0-3 1.35-3 3v26c0 1.65 1.35 3 3 3h26c1.65 0 3-1.35 3-3v-26c0-1.65-1.35-3-3-3zM8.719 25.975c-1.5 0-2.719-1.206-2.719-2.706 0-1.488 1.219-2.712 2.719-2.712 1.506 0 2.719 1.225 2.719 2.712 0 1.5-1.219 2.706-2.719 2.706zM15.544 26c0-2.556-0.994-4.962-2.794-6.762-1.806-1.806-4.2-2.8-6.75-2.8v-3.912c7.425 0 13.475 6.044 13.475 13.475h-3.931zM22.488 26c0-9.094-7.394-16.5-16.481-16.5v-3.912c11.25 0 20.406 9.162 20.406 20.413h-3.925z"></path>
</symbol>
</defs>
</svg>
